<?xml version="1.0" standalone="no"?><!DOCTYPE svg PUBLIC "-//W3C//DTD SVG 1.1//EN" "http://www.w3.org/Graphics/SVG/1.1/DTD/svg11.dtd"><svg t="1609173575101" class="icon" viewBox="0 0 1026 1024" version="1.1" xmlns="http://www.w3.org/2000/svg" p-id="21656" xmlns:xlink="http://www.w3.org/1999/xlink" width="200.390625" height="200"><defs><style type="text/css"></style></defs><path d="M943.793571 276.247273a16.523636 16.523636 0 0 1 16.523636 16.756363V884.363636a16.523636 16.523636 0 0 1-16.523636 16.756364H390.833571a16.523636 16.523636 0 0 1-11.403636-4.654545L70.833571 606.72a15.592727 15.592727 0 0 1-5.352727-11.869091 17.92 17.92 0 0 1 4.887272-13.032727l302.545455-301.381818a16.058182 16.058182 0 0 1 11.636364-4.887273h559.243636m0-65.861818H383.619025a81.92 81.92 0 0 0-58.181818 23.272727L24.055389 536.436364A81.92 81.92 0 0 0 26.149935 654.429091l308.596363 289.047273a82.152727 82.152727 0 0 0 56.087273 23.272727h552.96A82.618182 82.618182 0 0 0 1026.877207 884.363636V293.003636a82.618182 82.618182 0 0 0-82.385454-82.385454z m0 0" p-id="21657"></path><path d="M787.400844 773.818182a32.116364 32.116364 0 0 1-23.272728-9.541818l-302.545454-303.709091a32.814545 32.814545 0 0 1 46.545454-46.545455l303.709091 302.545455a32.814545 32.814545 0 0 1 0 46.545454 31.883636 31.883636 0 0 1-23.272727 9.774546z m0 0" p-id="21658"></path><path d="M483.691753 771.956364a33.047273 33.047273 0 0 1-23.272728-56.087273l303.709091-302.545455a32.814545 32.814545 0 0 1 46.545455 46.545455l-303.941818 302.545454a32.581818 32.581818 0 0 1-23.272728 9.541819z m0 0" p-id="21659"></path></svg>