<?xml version="1.0" standalone="no"?><!DOCTYPE svg PUBLIC "-//W3C//DTD SVG 1.1//EN" "http://www.w3.org/Graphics/SVG/1.1/DTD/svg11.dtd"><svg t="1607499579263" class="icon" viewBox="0 0 1024 1024" version="1.1" xmlns="http://www.w3.org/2000/svg" p-id="2535" xmlns:xlink="http://www.w3.org/1999/xlink" width="200" height="200"><defs><style type="text/css"></style></defs><path d="M842.9 121.8v750.3c0 18.6-15.5 30.1-29.9 30.1-4 0-7.9-0.8-11.9-2.6L548.4 791.4l-35.5-15.2-35.5 15.2-252.7 108.3c-4 1.7-7.9 2.6-11.9 2.6-14.4 0-29.9-11.5-29.9-30.1V121.8h660m0-90h-660c-49.7 0-90 40.3-90 90v750.3c0 69.1 56.7 120.1 119.9 120.1 15.6 0 31.7-3.1 47.3-9.8l252.7-108.3 252.7 108.3c15.7 6.7 31.7 9.8 47.3 9.8 63.3 0 119.9-51 119.9-120.1V121.8c0.2-49.7-40.1-90-89.8-90z"  p-id="2536"></path><path d="M512.9 347.9c-6.6 0-13.2 3.4-16.5 10.3l-29 58.7c-2.7 5.4-7.9 9.2-13.9 10.1l-64.8 9.4c-15.1 2.2-21.2 20.8-10.2 31.5l46.9 45.7c4.3 4.2 6.3 10.3 5.3 16.3l-11.1 64.5c-2 11.9 7.4 21.6 18.2 21.6 2.8 0 5.8-0.7 8.6-2.2l57.9-30.5c2.7-1.4 5.6-2.1 8.6-2.1s5.9 0.7 8.6 2.1l57.9 30.5c2.8 1.5 5.7 2.2 8.6 2.2 10.7 0 20.2-9.7 18.2-21.6l-11.1-64.5c-1-6 1-12.1 5.3-16.3l46.9-45.7c10.9-10.7 4.9-29.3-10.2-31.5l-64.8-9.4c-6-0.9-11.2-4.6-13.9-10.1l-29-58.7c-3.3-6.8-9.9-10.3-16.5-10.3z"  p-id="2537"></path></svg>