<?xml version="1.0" standalone="no"?><!DOCTYPE svg PUBLIC "-//W3C//DTD SVG 1.1//EN" "http://www.w3.org/Graphics/SVG/1.1/DTD/svg11.dtd"><svg t="1608143387690" class="icon" viewBox="0 0 1024 1024" version="1.1" xmlns="http://www.w3.org/2000/svg" p-id="619" xmlns:xlink="http://www.w3.org/1999/xlink" width="200" height="200"><defs><style type="text/css"></style></defs><path d="M275.7 490.70000001c-0.1 0.2-0.3 0.4-0.4 0.59999999-0.2 0.3-0.5 0.7-0.69999999 1-0.1 0.1-0.2 0.3-0.20000001 0.4-0.3 0.4-0.50000001 0.8-0.8 1.20000001l-0.1 0.09999999c-2.6 4.6-4.1 9.6-4.6 14.7l0 0.2c0 0.5-0.1 0.9-0.1 1.4l0 3.2c0 0.5 0.1 0.9 0.1 1.4l0 0.2c0.4 5.1 2 10.1 4.6 14.7l0.1 0.1c0.2 0.4 0.50000001 0.8 0.8 1.3 0.1 0.1 0.2 0.3 0.20000001 0.4 0.2 0.3 0.4 0.7 0.69999999 1 0.1 0.2 0.3 0.4 0.4 0.60000001 0.2 0.3 0.4 0.5 0.6 0.79999999 0.2 0.2 0.4 0.5 0.6 0.7 0.1 0.1 0.2 0.2 0.3 0.4 0.1 0.1 0.2 0.2 0.19999999 0.3 0.2 0.3 0.5 0.5 0.70000002 0.8 0.2 0.2 0.4 0.4 0.49999999 0.6l0.7 0.7 0.6 0.6c0.2 0.2 0.5 0.4 0.7 0.7l0.6 0.6 0.3 0.3 414.60000001 347.6c15.2 12.70000001 38 10.69999999 50.69999999-4.4 12.70000001-15.2 10.69999999-38-4.4-50.7L360.79999999 512 742.4 191.8c15.2-12.70000001 17.20000001-35.6 4.4-50.7-12.70000001-15.2-35.6-17.20000001-50.69999999-4.4l-414.40000001 347.7-0.3 0.3-0.6 0.6c-0.2 0.2-0.5 0.4-0.7 0.7l-0.6 0.6-0.7 0.7c-0.2 0.2-0.4 0.4-0.5 0.6-0.2 0.3-0.5 0.5-0.7 0.8-0.1 0.1-0.2 0.2-0.2 0.3-0.1 0.1-0.2 0.2-0.30000001 0.4-0.2 0.2-0.4 0.5-0.59999999 0.7-0.4 0.1-0.6 0.4-0.8 0.60000001z" p-id="620"></path></svg>