<?xml version="1.0" standalone="no"?><!DOCTYPE svg PUBLIC "-//W3C//DTD SVG 1.1//EN" "http://www.w3.org/Graphics/SVG/1.1/DTD/svg11.dtd"><svg t="1607480139705" class="icon" viewBox="0 0 1024 1024" version="1.1" xmlns="http://www.w3.org/2000/svg" p-id="23227" xmlns:xlink="http://www.w3.org/1999/xlink" width="200" height="200"><defs><style type="text/css"></style></defs><path d="M512 133.12c208.91648 0 378.88 169.96352 378.88 378.88s-169.96352 378.88-378.88 378.88-378.88-169.96352-378.88-378.88 169.96352-378.88 378.88-378.88m0-71.68c-248.83712 0-450.56 201.72288-450.56 450.56s201.72288 450.56 450.56 450.56 450.56-201.72288 450.56-450.56-201.72288-450.56-450.56-450.56z" fill="" p-id="23228"></path><path d="M624.74752 263.6288a35.72224 35.72224 0 0 0-25.344 10.496L512 361.52832 424.59648 274.1248a35.73248 35.73248 0 0 0-25.344-10.496 35.84 35.84 0 0 0-25.344 61.17888L451.07712 401.9712H348.16a35.84 35.84 0 1 0 0 71.68h128v66.56H348.16a35.84 35.84 0 1 0 0 71.68h128v133.12a35.84 35.84 0 1 0 71.68 0v-133.12h128a35.84 35.84 0 1 0 0-71.68h-128v-66.56h128a35.84 35.84 0 1 0 0-71.68h-102.91712l77.16352-77.16352a35.84 35.84 0 0 0-25.33888-61.17888z" fill="" p-id="23229"></path></svg>