<?xml version="1.0" standalone="no"?><!DOCTYPE svg PUBLIC "-//W3C//DTD SVG 1.1//EN" "http://www.w3.org/Graphics/SVG/1.1/DTD/svg11.dtd"><svg t="1609141860190" class="icon" viewBox="0 0 1024 1024" version="1.1" xmlns="http://www.w3.org/2000/svg" p-id="7065" xmlns:xlink="http://www.w3.org/1999/xlink" width="200" height="200"><defs><style type="text/css"></style></defs><path d="M265.989689 740.625067l0.068267 0.318577 0.750933-0.136533c0.045511 0 0.113778 0.068267 0.182044 0.068267a8.100978 8.100978 0 0 0 3.117511-0.682667l141.653334-25.486222v-0.091022c4.960711-0.910222 9.648356-3.299556 13.5168-7.145245L736.824889 395.901156a25.873067 25.873067 0 0 0 0-36.636445l-100.7616-100.784355a25.713778 25.713778 0 0 0-36.6592 0L287.812267 570.026667a25.759289 25.759289 0 0 0-7.122489 13.357511h-0.136534l-18.864355 132.027733-0.273067 0.045511 0.182045 0.728178-1.979734 13.539556a7.918933 7.918933 0 0 0 6.371556 10.922666z m45.056-129.774934l74.046578 74.069334-86.8352 15.633066 12.765866-89.7024zM617.6768 288.312889l89.2928 89.2928L416.426667 668.148622l-89.247289-89.2928 290.497422-290.565689zM778.877156 761.856H267.8784a17.021156 17.021156 0 1 0 0 34.065067h510.998756a17.021156 17.021156 0 1 0 0-34.065067z" p-id="7066"></path></svg>