<?xml version="1.0" standalone="no"?><!DOCTYPE svg PUBLIC "-//W3C//DTD SVG 1.1//EN" "http://www.w3.org/Graphics/SVG/1.1/DTD/svg11.dtd"><svg t="1608087766463" class="icon" viewBox="0 0 1024 1024" version="1.1" xmlns="http://www.w3.org/2000/svg" p-id="1779" xmlns:xlink="http://www.w3.org/1999/xlink" width="200" height="200"><defs><style type="text/css"></style></defs><path d="M748.3 533.3c0.1-0.2 0.3-0.4 0.4-0.6 0.2-0.3 0.5-0.7 0.7-1 0.1-0.1 0.2-0.3 0.2-0.4 0.3-0.4 0.5-0.8 0.8-1.2l0.1-0.1c2.6-4.6 4.1-9.6 4.6-14.7v-0.2c0-0.5 0.1-0.9 0.1-1.4v-0.6-1-1-0.6c0-0.5-0.1-0.9-0.1-1.4v-0.2c-0.4-5.1-2-10.1-4.6-14.7l-0.1-0.1c-0.2-0.4-0.5-0.8-0.8-1.3-0.1-0.1-0.2-0.3-0.2-0.4-0.2-0.3-0.4-0.7-0.7-1-0.1-0.2-0.3-0.4-0.4-0.6-0.2-0.3-0.4-0.5-0.6-0.8-0.2-0.2-0.4-0.5-0.6-0.7-0.1-0.1-0.2-0.2-0.3-0.4-0.1-0.1-0.2-0.2-0.2-0.3-0.2-0.3-0.5-0.5-0.7-0.8-0.2-0.2-0.4-0.4-0.5-0.6l-0.7-0.7-0.6-0.6c-0.2-0.2-0.5-0.4-0.7-0.7l-0.6-0.6-0.3-0.3-414.6-347.6c-15.2-12.7-38-10.7-50.7 4.4-12.7 15.2-10.7 38 4.4 50.7L663.2 512 281.6 832.2c-15.2 12.7-17.2 35.6-4.4 50.7 12.7 15.2 35.6 17.2 50.7 4.4l414.4-347.7 0.3-0.3 0.6-0.6c0.2-0.2 0.5-0.4 0.7-0.7l0.6-0.6 0.7-0.7c0.2-0.2 0.4-0.4 0.5-0.6 0.2-0.3 0.5-0.5 0.7-0.8 0.1-0.1 0.2-0.2 0.2-0.3 0.1-0.1 0.2-0.2 0.3-0.4 0.2-0.2 0.4-0.5 0.6-0.7 0.4-0.1 0.6-0.4 0.8-0.6z" p-id="1780"></path></svg>